<?xml version="1.0" encoding="UTF-8" standalone="no"?>
<svg
   xml:space="preserve"
   width="17.92078"
   height="22.01078"
   version="1.1"
   id="svg1"
   sodipodi:docname="apple_logo_black.svg"
   inkscape:version="1.3.2 (091e20e, 2023-11-25, custom)"
   xmlns:inkscape="http://www.inkscape.org/namespaces/inkscape"
   xmlns:sodipodi="http://sodipodi.sourceforge.net/DTD/sodipodi-0.dtd"
   xmlns="http://www.w3.org/2000/svg"
   xmlns:svg="http://www.w3.org/2000/svg"><defs
   id="defs1" /><sodipodi:namedview
   id="namedview1"
   pagecolor="#ffffff"
   bordercolor="#666666"
   borderopacity="1.0"
   inkscape:showpageshadow="2"
   inkscape:pageopacity="0.0"
   inkscape:pagecheckerboard="0"
   inkscape:deskcolor="#d1d1d1"
   inkscape:zoom="14.552"
   inkscape:cx="26.80044"
   inkscape:cy="16.904893"
   inkscape:window-width="2035"
   inkscape:window-height="1329"
   inkscape:window-x="4272"
   inkscape:window-y="397"
   inkscape:window-maximized="0"
   inkscape:current-layer="svg1" />
  <path
   d="m 17.34844,7.50422 c -0.12767,0.0991 -2.3818,1.36921 -2.3818,4.19348 0,3.26672 2.86829,4.42241 2.95414,4.45103 -0.0132,0.0704 -0.45567,1.58273 -1.5123,3.12364 -0.94215,1.356 -1.92613,2.7098 -3.42302,2.7098 -1.49688,0 -1.8821,-0.86951 -3.61013,-0.86951 -1.68399,0 -2.28274,0.89812 -3.65195,0.89812 -1.36921,0 -2.32457,-1.25474 -3.42302,-2.79564 C 1.02801,17.40566 0,14.59461 0,11.92663 0,7.64731 2.78244,5.37777 5.52086,5.37777 c 1.45506,0 2.66797,0.95536 3.58152,0.95536 0.8695,0 2.2255,-1.0126 3.88088,-1.0126 0.62738,0 2.88151,0.0572 4.36518,2.18369 z M 12.1974,3.50886 C 12.882,2.69658 13.36629,1.56952 13.36629,0.44245 13.36629,0.28617 13.35309,0.12767 13.32449,0 12.21063,0.0418 10.88545,0.74183 10.08637,1.66858 9.45901,2.38179 8.87346,3.50886 8.87346,4.65134 c 0,0.1717 0.0287,0.3434 0.0418,0.39843 0.0704,0.0132 0.18492,0.0287 0.29938,0.0287 0.99939,0 2.25633,-0.6692 2.98276,-1.56953 z"
   id="path1"
   style="stroke-width:0.022013" />
</svg>
