<?xml version="1.0" encoding="UTF-8" standalone="no"?>
<svg
   width="18.549141"
   height="22.021496"
   version="1.1"
   id="svg1"
   sodipodi:docname="apple_logo_white.svg"
   inkscape:version="1.3.2 (091e20e, 2023-11-25, custom)"
   xmlns:inkscape="http://www.inkscape.org/namespaces/inkscape"
   xmlns:sodipodi="http://sodipodi.sourceforge.net/DTD/sodipodi-0.dtd"
   xmlns="http://www.w3.org/2000/svg"
   xmlns:svg="http://www.w3.org/2000/svg">
  <defs
     id="defs1" />
  <sodipodi:namedview
     id="namedview1"
     pagecolor="#ffffff"
     bordercolor="#666666"
     borderopacity="1.0"
     inkscape:showpageshadow="2"
     inkscape:pageopacity="0.0"
     inkscape:pagecheckerboard="0"
     inkscape:deskcolor="#d1d1d1"
     inkscape:zoom="20.579633"
     inkscape:cx="5.8310077"
     inkscape:cy="3.7658591"
     inkscape:window-width="1649"
     inkscape:window-height="1266"
     inkscape:window-x="2970"
     inkscape:window-y="278"
     inkscape:window-maximized="0"
     inkscape:current-layer="svg1" />
  <path
     fill="#ffffff"
     d="m 18.16038,17.16142 c -0.33303,0.76938 -0.72723,1.47757 -1.18396,2.12869 -0.62256,0.88762 -1.1323,1.50203 -1.52515,1.84322 -0.60897,0.56003 -1.26144,0.84685 -1.96012,0.86316 -0.50159,0 -1.10647,-0.14272 -1.81061,-0.43226 -0.70642,-0.28817 -1.35563,-0.4309 -1.94924,-0.4309 -0.62256,0 -1.29025,0.14273 -2.00444,0.4309 C 7.01159,21.85377 6.43538,22.00465 5.99482,22.0196 5.32482,22.0482 4.657,21.75317 3.99039,21.13333 3.56493,20.76224 3.03275,20.12608 2.39524,19.22486 1.71124,18.26247 1.14888,17.14648 0.70833,15.87415 0.23652,14.49989 0,13.16913 0,11.88078 0,10.40497 0.31889,9.13212 0.95763,8.06547 1.45962,7.20869 2.12745,6.53284 2.96329,6.0367 3.79913,5.54055 4.70226,5.28771 5.67485,5.27153 c 0.53217,0 1.23003,0.16462 2.09728,0.48814 0.86478,0.3246 1.42007,0.48921 1.66352,0.48921 0.18201,0 0.79887,-0.19247 1.84458,-0.57621 0.9889,-0.35587 1.82351,-0.50322 2.50725,-0.44518 1.85274,0.14953 3.24468,0.87989 4.17036,2.1957 -1.65699,1.00399 -2.47666,2.41019 -2.46035,4.21414 0.0149,1.40511 0.5247,2.57439 1.52651,3.5028 0.45401,0.4309 0.96103,0.76393 1.52514,1.00045 -0.12233,0.35478 -0.25147,0.69461 -0.38876,1.02084 z M 13.91118,0.44055 c 0,1.10133 -0.40236,2.12963 -1.20435,3.08142 C 11.739,4.65346 10.56837,5.30729 9.2989,5.20412 9.2827,5.07199 9.2734,4.93293 9.2734,4.78681 9.2734,3.72954 9.73366,2.59805 10.55102,1.67289 10.95909,1.20448 11.47807,0.815 12.10742,0.5043 12.73543,0.19824 13.32945,0.02898 13.88813,0 c 0.0163,0.14722 0.0231,0.29447 0.0231,0.44053 z"
     id="path1"
     style="stroke-width:0.0220215" />
</svg>
