<?xml version="1.0" encoding="UTF-8" standalone="no"?>
<!-- Created with Inkscape (http://www.inkscape.org/) -->

<svg
   version="1.1"
   id="svg1"
   width="280"
   height="280"
   viewBox="0 0 280 280.00001"
   sodipodi:docname="appiconfg.svg"
   inkscape:version="1.3.1 (91b66b0783, 2023-11-16)"
   xmlns:inkscape="http://www.inkscape.org/namespaces/inkscape"
   xmlns:sodipodi="http://sodipodi.sourceforge.net/DTD/sodipodi-0.dtd"
   xmlns:xlink="http://www.w3.org/1999/xlink"
   xmlns="http://www.w3.org/2000/svg"
   xmlns:svg="http://www.w3.org/2000/svg">
  <defs
     id="defs1">
    <linearGradient
       id="linearGradient19"
       inkscape:collect="always">
      <stop
         style="stop-color:#fcfaf4;stop-opacity:1;"
         offset="0"
         id="stop19" />
      <stop
         style="stop-color:#792f12;stop-opacity:1;"
         offset="0.5192802"
         id="stop21" />
      <stop
         style="stop-color:#47160d;stop-opacity:1;"
         offset="0.82262212"
         id="stop22" />
      <stop
         style="stop-color:#3e1307;stop-opacity:1;"
         offset="1"
         id="stop20" />
    </linearGradient>
    <linearGradient
       id="linearGradient2"
       inkscape:collect="always">
      <stop
         style="stop-color:#fdffff;stop-opacity:1;"
         offset="0"
         id="stop2" />
      <stop
         style="stop-color:#fbdeb7;stop-opacity:1;"
         offset="0.46537396"
         id="stop4" />
      <stop
         style="stop-color:#91715e;stop-opacity:1;"
         offset="0.80609417"
         id="stop5" />
      <stop
         style="stop-color:#1b1b18;stop-opacity:1;"
         offset="1"
         id="stop3" />
    </linearGradient>
    <linearGradient
       inkscape:collect="always"
       xlink:href="#linearGradient2"
       id="linearGradient3"
       x1="530.99005"
       y1="255.54427"
       x2="530.56659"
       y2="529.50806"
       gradientUnits="userSpaceOnUse"
       gradientTransform="translate(25.258783,32.409492)" />
    <linearGradient
       inkscape:collect="always"
       xlink:href="#linearGradient19"
       id="linearGradient25"
       gradientUnits="userSpaceOnUse"
       gradientTransform="matrix(0.75045229,0,0,1.3423421,134.94285,-260.33209)"
       x1="409.88956"
       y1="575.63782"
       x2="409.89944"
       y2="590.67133" />
    <linearGradient
       inkscape:collect="always"
       xlink:href="#linearGradient19"
       id="linearGradient26"
       gradientUnits="userSpaceOnUse"
       gradientTransform="matrix(0.68896473,0,0,1.3423421,419.51854,-260.03267)"
       x1="409.88956"
       y1="575.63782"
       x2="409.89944"
       y2="590.67133" />
    <linearGradient
       inkscape:collect="always"
       xlink:href="#linearGradient19"
       id="linearGradient31"
       gradientUnits="userSpaceOnUse"
       gradientTransform="matrix(0.74067517,0,0,1.2522521,397.56397,-399.25954)"
       x1="409.88956"
       y1="575.63782"
       x2="409.89944"
       y2="590.67133" />
    <linearGradient
       inkscape:collect="always"
       xlink:href="#linearGradient19"
       id="linearGradient32"
       gradientUnits="userSpaceOnUse"
       gradientTransform="matrix(0.75604708,0,0,1.2522521,131.93613,-397.46305)"
       x1="409.88956"
       y1="575.63782"
       x2="409.89944"
       y2="590.67133" />
    <linearGradient
       inkscape:collect="always"
       xlink:href="#linearGradient19"
       id="linearGradient4"
       gradientUnits="userSpaceOnUse"
       gradientTransform="matrix(0.74067517,0,0,1.2522521,138.64522,-304.92267)"
       x1="409.88956"
       y1="575.63782"
       x2="409.89944"
       y2="590.67133" />
    <linearGradient
       inkscape:collect="always"
       xlink:href="#linearGradient19"
       id="linearGradient5"
       gradientUnits="userSpaceOnUse"
       gradientTransform="matrix(0.75604708,0,0,1.2522521,392.11307,-306.71916)"
       x1="409.88956"
       y1="575.63782"
       x2="409.89944"
       y2="590.67133" />
  </defs>
  <sodipodi:namedview
     id="namedview1"
     pagecolor="#ffffff"
     bordercolor="#000000"
     borderopacity="0.25"
     inkscape:showpageshadow="2"
     inkscape:pageopacity="0.0"
     inkscape:pagecheckerboard="0"
     inkscape:deskcolor="#d1d1d1"
     inkscape:zoom="2.3959506"
     inkscape:cx="108.51643"
     inkscape:cy="166.32229"
     inkscape:window-width="1920"
     inkscape:window-height="1111"
     inkscape:window-x="-9"
     inkscape:window-y="-9"
     inkscape:window-maximized="1"
     inkscape:current-layer="layer4" />
  <g
     inkscape:groupmode="layer"
     id="layer4"
     inkscape:label="Bars"
     transform="translate(-420.97781,-286.47171)">
    <rect
       style="display:inline;fill:url(#linearGradient25);stroke:none;stroke-width:7.32683;stroke-linecap:round;stroke-dasharray:none;stroke-opacity:1"
       id="rect25"
       width="20.672094"
       height="22.306442"
       x="421.43134"
       y="511.34979" />
    <rect
       style="display:inline;fill:url(#linearGradient26);stroke:none;stroke-width:7.02025;stroke-linecap:round;stroke-dasharray:none;stroke-opacity:1"
       id="rect26"
       width="18.978346"
       height="22.306442"
       x="682.53387"
       y="511.6492" />
    <rect
       style="display:inline;fill:url(#linearGradient31);stroke:none;stroke-width:7.03044;stroke-linecap:round;stroke-dasharray:none;stroke-opacity:1"
       id="rect31"
       width="20.402773"
       height="20.809366"
       x="680.32001"
       y="320.63168" />
    <rect
       style="display:inline;fill:url(#linearGradient32);stroke:none;stroke-width:7.10302;stroke-linecap:round;stroke-dasharray:none;stroke-opacity:1"
       id="rect32"
       width="20.82621"
       height="20.809366"
       x="420.56046"
       y="322.42816" />
    <rect
       style="display:inline;fill:url(#linearGradient5);stroke:none;stroke-width:7.10302;stroke-linecap:round;stroke-dasharray:none;stroke-opacity:1"
       id="rect2"
       width="20.82621"
       height="20.809366"
       x="680.73737"
       y="413.17206" />
    <rect
       style="display:inline;fill:url(#linearGradient4);stroke:none;stroke-width:7.03044;stroke-linecap:round;stroke-dasharray:none;stroke-opacity:1"
       id="rect3"
       width="20.402773"
       height="20.809366"
       x="421.40125"
       y="414.96854" />
  </g>
  <g
     inkscape:groupmode="layer"
     id="layer3"
     inkscape:label="Page"
     transform="translate(-420.97781,-286.47171)">
    <rect
       style="opacity:1;fill:url(#linearGradient3);stroke:none"
       id="rect1"
       width="232.89038"
       height="276.50443"
       x="445.73178"
       y="287.31857" />
    <path
       d="m 587.5112,372.11768 q 6.83968,1.84145 10.32528,5.39282 4.93246,4.99822 4.93246,11.50907 0,5.32705 -3.8802,11.04871 -3.81443,5.65588 -14.13971,13.48205 8.81266,0.78919 12.89015,2.89371 4.14327,2.10451 5.78742,5.39282 1.64415,3.2883 1.64415,10.98294 v 22.62354 q -23.41273,2.63065 -39.92002,16.31 -5.72166,-3.94597 -10.85141,-5.59012 -8.28653,-2.76218 -17.75685,-2.76218 -11.6406,0 -18.67758,4.73516 -4.73516,3.15677 -4.73516,6.31355 0,1.18379 1.31532,3.4856 1.38109,2.36758 1.38109,3.74867 0,1.31532 -0.98649,2.30181 -0.98649,0.9865 -2.17028,0.9865 -1.84145,0 -3.35407,-1.77569 -1.44686,-1.70992 -1.44686,-4.47209 0,-2.56488 1.77569,-5.85319 1.84145,-3.22254 7.82617,-9.33879 6.05048,-6.11624 7.69463,-8.94419 1.70992,-2.82794 1.70992,-5.26129 0,-2.89371 -1.97298,-4.73516 -1.90722,-1.90721 -4.8667,-1.90721 -2.69641,0 -4.40633,1.51262 -1.70991,1.51262 -2.30181,4.99822 h -2.36758 q -0.0658,-1.24955 -0.0658,-1.84145 0,-5.52435 3.68291,-9.07572 3.74866,-3.55137 9.93068,-3.55137 0.72343,0 2.23605,0.0658 -0.0658,-6.44508 -1.90722,-9.33878 -2.89371,-4.6694 -8.81266,-4.6694 -3.6829,0 -6.51084,1.90722 -1.51262,0.98649 -3.02525,4.0775 l -2.49911,-0.85496 q 0.65766,-6.31355 4.86669,-10.06222 4.2748,-3.74867 10.85141,-3.74867 2.43335,0 6.05049,0.3946 0.26306,-9.27302 1.70991,-13.48205 1.44686,-4.2748 4.8667,-7.7604 3.41983,-3.55137 12.95592,-9.79915 -9.00996,2.95947 -15.25774,2.95947 -4.01173,0 -10.52258,-1.57838 -3.74866,-0.85496 -5.32705,-0.85496 -2.95948,0 -4.99822,2.03875 -2.03875,1.97298 -2.69642,7.10274 h -2.49911 q 0.1973,-5.98472 2.17028,-9.99645 2.03875,-4.0775 6.18202,-6.51085 4.14326,-2.49911 8.74689,-2.49911 3.41984,0 11.37754,1.97298 7.9577,1.97299 12.89016,1.97299 3.61713,0 6.9712,-0.7892 3.41984,-0.78919 8.94419,-3.15677 l 1.31533,2.82794 q -14.20548,6.90544 -18.94064,13.48205 -4.6694,6.51085 -4.6694,17.36226 v 27.02987 q 0,8.87842 -1.97298,13.81088 -1.97298,4.93246 -7.9577,11.24601 11.6406,-4.93246 15.65233,-10.58835 4.01174,-5.65588 4.01174,-16.63882 v -19.401 q 0,-13.54782 2.36758,-19.07218 2.36758,-5.59012 8.68112,-9.53608 6.37932,-4.01174 27.7533,-10.52258 z m -11.37753,6.37931 q -7.10274,3.22254 -9.60186,5.45859 -2.43334,2.23605 -3.41983,5.32705 -0.92073,3.02525 -0.92073,10.32528 v 26.96411 q 0,7.23427 -1.31532,10.91717 -1.31532,3.61714 -5.06399,7.16851 -3.74867,3.4856 -15.19197,10.19375 6.18201,-0.92073 11.50907,-0.92073 9.07572,0 17.16495,2.49911 v -54.78317 h 2.89371 v 17.09919 q 9.07572,-5.45859 13.41629,-11.18024 4.34056,-5.78741 4.34056,-12.49556 0,-5.52435 -3.41984,-9.47032 -3.35407,-4.01173 -10.39104,-7.10274 z m -3.94597,49.71918 q 5.39282,1.90722 9.73338,1.90722 4.34057,0 9.73339,-1.90722 0,-4.53786 -2.03875,-7.30004 -2.03875,-2.76217 -7.69464,-5.19552 -7.1685,4.73516 -9.73338,6.11625 z m 19.46677,2.89371 q -5.52436,1.90722 -9.73339,1.90722 -4.53786,0 -9.73338,-1.90722 v 11.70637 q 5.06399,-1.84145 9.47032,-1.84145 4.2748,0 9.99645,1.84145 z m 0,14.73161 q -6.05048,-2.17028 -10.25952,-2.17028 -4.40632,0 -9.20725,2.17028 v 11.70637 q 2.82794,1.24955 5.32705,2.82794 6.70815,-3.4856 14.13972,-5.45859 z"
       id="text5"
       style="font-size:134.689px;font-family:'Old English Text MT';-inkscape-font-specification:'Old English Text MT, Normal';stroke:#000000;stroke-width:0.420902;stroke-linecap:round"
       aria-label="B" />
    <path
       style="fill:#000000;stroke:#000000;stroke-width:7.07549;stroke-linecap:round;stroke-dasharray:none;stroke-opacity:1"
       d="m 607.09134,377.62933 c 38.45957,0 38.45957,0 38.45957,0"
       id="path7" />
    <path
       style="fill:#000000;stroke:#000000;stroke-width:7.17046;stroke-linecap:round;stroke-dasharray:none;stroke-opacity:1"
       d="m 607.14478,404.17933 c 38.74833,0 38.74833,0 38.74833,0"
       id="path8" />
    <path
       style="fill:#000000;stroke:#000000;stroke-width:7.3;stroke-linecap:round;stroke-dasharray:none;stroke-opacity:1"
       d="m 478.41529,326.26873 c 167.68106,-1.69375 167.68106,-1.69375 167.68106,-1.69375"
       id="path9" />
    <path
       style="fill:#000000;stroke:#000000;stroke-width:7.3;stroke-linecap:round;stroke-dasharray:none;stroke-opacity:1"
       d="m 526.99546,484.43263 c 117.20558,-2.13751 117.20558,-2.13751 117.20558,-2.13751"
       id="path11" />
    <path
       style="fill:#000000;stroke:#000000;stroke-width:7.3;stroke-linecap:round;stroke-dasharray:none;stroke-opacity:1"
       d="m 475.45123,513.85134 c 167.68106,-1.69375 167.68106,-1.69375 167.68106,-1.69375"
       id="path12" />
    <path
       style="fill:#000000;stroke:#000000;stroke-width:6.97042;stroke-linecap:round;stroke-dasharray:none;stroke-opacity:1"
       d="m 612.18445,430.72933 c 32.14907,0 32.14907,0 32.14907,0"
       id="path1" />
    <path
       style="fill:#000000;stroke:#000000;stroke-width:7.3;stroke-linecap:round;stroke-dasharray:none;stroke-opacity:1"
       d="m 476.84361,377.92804 c 22.19803,0 22.19803,0 22.19803,0"
       id="path2" />
    <path
       style="fill:#000000;stroke:#000000;stroke-width:6.95043;stroke-linecap:round;stroke-dasharray:none;stroke-opacity:1"
       d="m 476.85682,404.60756 c 21.71451,0 21.71451,0 21.71451,0"
       id="path3" />
    <path
       style="fill:#000000;stroke:#000000;stroke-width:7.07216;stroke-linecap:round;stroke-dasharray:none;stroke-opacity:1"
       d="m 476.71219,431.58579 c 25.02308,0 25.02308,0 25.02308,0"
       id="path4" />
    <path
       style="fill:#000000;stroke:#000000;stroke-width:7.3;stroke-linecap:round;stroke-dasharray:none;stroke-opacity:1"
       d="m 478.41529,351.25152 c 167.68106,-1.69375 167.68106,-1.69375 167.68106,-1.69375"
       id="path5" />
    <path
       style="fill:#000000;stroke:#000000;stroke-width:6.97042;stroke-linecap:round;stroke-dasharray:none;stroke-opacity:1"
       d="m 612.18445,457.0237 c 32.14907,0 32.14907,0 32.14907,0"
       id="path6" />
    <path
       style="fill:#000000;stroke:#000000;stroke-width:7.07216;stroke-linecap:round;stroke-dasharray:none;stroke-opacity:1"
       d="m 476.71219,457.88016 c 25.02308,0 25.02308,0 25.02308,0"
       id="path10" />
    <path
       style="fill:#000000;stroke:#000000;stroke-width:7.3;stroke-linecap:round;stroke-dasharray:none;stroke-opacity:1"
       d="m 476.00887,483.1055 c 22.19803,0 22.19803,0 22.19803,0"
       id="path13" />
  </g>
</svg>
